<svg data-v-423bf9ae="" xmlns="http://www.w3.org/2000/svg" viewBox="0 0 672 90" class="iconLeft"><!----><!----><!----><g data-v-423bf9ae="" id="e3b19e23-8cd3-4185-ab30-b4515d9a2760" fill="white" transform="matrix(4.44444465637207,0,0,4.44444465637207,137.19998168945312,5.311107635498047)"><path d="M2.76 9.31L2.76 9.31L2.76 9.31Q2.76 10.28 3.19 10.86L3.19 10.86L3.19 10.86Q3.63 11.45 4.48 11.45L4.48 11.45L4.48 11.45Q4.76 11.45 5.00 11.43L5.00 11.43L5.00 11.43Q5.24 11.41 5.39 11.38L5.39 11.38L5.39 7.59L5.39 7.59Q5.19 7.46 4.88 7.38L4.88 7.38L4.88 7.38Q4.56 7.29 4.24 7.29L4.24 7.29L4.24 7.29Q2.76 7.29 2.76 9.31ZM7.48 2.18L7.48 12.81L7.48 12.81Q7.20 12.89 6.83 12.97L6.83 12.97L6.83 12.97Q6.47 13.05 6.07 13.10L6.07 13.10L6.07 13.10Q5.67 13.16 5.26 13.20L5.26 13.20L5.26 13.20Q4.84 13.23 4.47 13.23L4.47 13.23L4.47 13.23Q3.56 13.23 2.84 12.96L2.84 12.96L2.84 12.96Q2.13 12.70 1.64 12.20L1.64 12.20L1.64 12.20Q1.15 11.70 0.89 11.00L0.89 11.00L0.89 11.00Q0.63 10.29 0.63 9.41L0.63 9.41L0.63 9.41Q0.63 8.51 0.85 7.79L0.85 7.79L0.85 7.79Q1.08 7.07 1.50 6.57L1.50 6.57L1.50 6.57Q1.92 6.06 2.53 5.80L2.53 5.80L2.53 5.80Q3.14 5.53 3.92 5.53L3.92 5.53L3.92 5.53Q4.35 5.53 4.70 5.61L4.70 5.61L4.70 5.61Q5.04 5.70 5.39 5.85L5.39 5.85L5.39 2.52L7.48 2.18ZM16.32 9.35L16.32 9.35L16.32 9.35Q16.32 10.22 16.07 10.94L16.07 10.94L16.07 10.94Q15.82 11.66 15.34 12.17L15.34 12.17L15.34 12.17Q14.87 12.68 14.20 12.96L14.20 12.96L14.20 12.96Q13.54 13.24 12.71 13.24L12.71 13.24L12.71 13.24Q11.90 13.24 11.23 12.96L11.23 12.96L11.23 12.96Q10.57 12.68 10.09 12.17L10.09 12.17L10.09 12.17Q9.62 11.66 9.35 10.94L9.35 10.94L9.35 10.94Q9.09 10.22 9.09 9.35L9.09 9.35L9.09 9.35Q9.09 8.48 9.36 7.77L9.36 7.77L9.36 7.77Q9.63 7.06 10.12 6.55L10.12 6.55L10.12 6.55Q10.60 6.05 11.26 5.77L11.26 5.77L11.26 5.77Q11.93 5.49 12.71 5.49L12.71 5.49L12.71 5.49Q13.51 5.49 14.18 5.77L14.18 5.77L14.18 5.77Q14.84 6.05 15.32 6.55L15.32 6.55L15.32 6.55Q15.79 7.06 16.06 7.77L16.06 7.77L16.06 7.77Q16.32 8.48 16.32 9.35ZM14.20 9.35L14.20 9.35L14.20 9.35Q14.20 8.39 13.81 7.83L13.81 7.83L13.81 7.83Q13.43 7.28 12.71 7.28L12.71 7.28L12.71 7.28Q12.00 7.28 11.61 7.83L11.61 7.83L11.61 7.83Q11.21 8.39 11.21 9.35L11.21 9.35L11.21 9.35Q11.21 10.32 11.61 10.88L11.61 10.88L11.61 10.88Q12.00 11.45 12.71 11.45L12.71 11.45L12.71 11.45Q13.43 11.45 13.81 10.88L13.81 10.88L13.81 10.88Q14.20 10.32 14.20 9.35ZM22.65 9.31L22.65 9.31L22.65 9.31Q22.65 7.29 21.17 7.29L21.17 7.29L21.17 7.29Q20.85 7.29 20.53 7.38L20.53 7.38L20.53 7.38Q20.22 7.46 20.02 7.59L20.02 7.59L20.02 11.38L20.02 11.38Q20.17 11.41 20.41 11.43L20.41 11.43L20.41 11.43Q20.65 11.45 20.93 11.45L20.93 11.45L20.93 11.45Q21.78 11.45 22.22 10.86L22.22 10.86L22.22 10.86Q22.65 10.28 22.65 9.31ZM24.78 9.37L24.78 9.37L24.78 9.37Q24.78 10.25 24.52 10.96L24.52 10.96L24.52 10.96Q24.26 11.68 23.77 12.18L23.77 12.18L23.77 12.18Q23.28 12.68 22.57 12.96L22.57 12.96L22.57 12.96Q21.85 13.23 20.94 13.23L20.94 13.23L20.94 13.23Q20.57 13.23 20.15 13.20L20.15 13.20L20.15 13.20Q19.74 13.16 19.34 13.10L19.34 13.10L19.34 13.10Q18.94 13.05 18.58 12.97L18.58 12.97L18.58 12.97Q18.21 12.89 17.93 12.81L17.93 12.81L17.93 2.52L20.02 2.18L20.02 5.85L20.02 5.85Q20.37 5.70 20.75 5.61L20.75 5.61L20.75 5.61Q21.13 5.53 21.56 5.53L21.56 5.53L21.56 5.53Q22.34 5.53 22.95 5.80L22.95 5.80L22.95 5.80Q23.55 6.08 23.95 6.58L23.95 6.58L23.95 6.58Q24.36 7.08 24.57 7.79L24.57 7.79L24.57 7.79Q24.78 8.50 24.78 9.37ZM31.18 5.81L30.83 7.53L30.83 7.53Q30.55 7.46 30.17 7.38L30.17 7.38L30.17 7.38Q29.79 7.31 29.36 7.31L29.36 7.31L29.36 7.31Q29.16 7.31 28.89 7.34L28.89 7.34L28.89 7.34Q28.62 7.38 28.48 7.42L28.48 7.42L28.48 13.05L26.39 13.05L26.39 6.08L26.39 6.08Q26.95 5.88 27.71 5.71L27.71 5.71L27.71 5.71Q28.48 5.53 29.41 5.53L29.41 5.53L29.41 5.53Q29.58 5.53 29.82 5.55L29.82 5.55L29.82 5.55Q30.06 5.57 30.30 5.61L30.30 5.61L30.30 5.61Q30.53 5.64 30.77 5.69L30.77 5.69L30.77 5.69Q31.01 5.74 31.18 5.81L31.18 5.81ZM36.68 5.68L38.84 5.68L38.84 5.68Q38.21 7.81 37.52 9.67L37.52 9.67L37.52 9.67Q36.83 11.54 36.02 13.29L36.02 13.29L36.02 13.29Q35.73 13.92 35.43 14.36L35.43 14.36L35.43 14.36Q35.14 14.80 34.79 15.09L34.79 15.09L34.79 15.09Q34.44 15.37 34.00 15.50L34.00 15.50L34.00 15.50Q33.56 15.64 32.97 15.64L32.97 15.64L32.97 15.64Q32.48 15.64 32.07 15.55L32.07 15.55L32.07 15.55Q31.65 15.46 31.39 15.34L31.39 15.34L31.75 13.68L31.75 13.68Q32.07 13.79 32.33 13.83L32.33 13.83L32.33 13.83Q32.58 13.87 32.86 13.87L32.86 13.87L32.86 13.87Q33.42 13.87 33.72 13.57L33.72 13.57L33.72 13.57Q34.02 13.27 34.23 12.74L34.23 12.74L34.23 12.74Q33.52 11.34 32.80 9.60L32.80 9.60L32.80 9.60Q32.09 7.85 31.46 5.68L31.46 5.68L33.67 5.68L33.67 5.68Q33.81 6.23 34.00 6.87L34.00 6.87L34.00 6.87Q34.19 7.50 34.40 8.16L34.40 8.16L34.40 8.16Q34.61 8.81 34.83 9.42L34.83 9.42L34.83 9.42Q35.04 10.04 35.24 10.54L35.24 10.54L35.24 10.54Q35.42 10.04 35.62 9.42L35.62 9.42L35.62 9.42Q35.81 8.81 36.00 8.16L36.00 8.16L36.00 8.16Q36.19 7.50 36.37 6.87L36.37 6.87L36.37 6.87Q36.54 6.23 36.68 5.68L36.68 5.68ZM43.01 3.23L43.01 3.23L43.01 3.23Q45.18 3.23 46.34 4.00L46.34 4.00L46.34 4.00Q47.50 4.76 47.50 6.50L47.50 6.50L47.50 6.50Q47.50 8.25 46.33 9.02L46.33 9.02L46.33 9.02Q45.15 9.80 42.97 9.80L42.97 9.80L42.28 9.80L42.28 13.05L40.10 13.05L40.10 3.49L40.10 3.49Q40.81 3.35 41.61 3.29L41.61 3.29L41.61 3.29Q42.41 3.23 43.01 3.23ZM43.15 5.10L43.15 5.10L43.15 5.10Q42.91 5.10 42.68 5.11L42.68 5.11L42.68 5.11Q42.45 5.12 42.28 5.14L42.28 5.14L42.28 7.94L42.97 7.94L42.97 7.94Q44.10 7.94 44.67 7.63L44.67 7.63L44.67 7.63Q45.25 7.32 45.25 6.48L45.25 6.48L45.25 6.48Q45.25 6.08 45.10 5.81L45.10 5.81L45.10 5.81Q44.95 5.54 44.68 5.38L44.68 5.38L44.68 5.38Q44.41 5.22 44.02 5.16L44.02 5.16L44.02 5.16Q43.62 5.10 43.15 5.10ZM53.76 5.81L53.41 7.53L53.41 7.53Q53.13 7.46 52.75 7.38L52.75 7.38L52.75 7.38Q52.37 7.31 51.94 7.31L51.94 7.31L51.94 7.31Q51.74 7.31 51.47 7.34L51.47 7.34L51.47 7.34Q51.20 7.38 51.06 7.42L51.06 7.42L51.06 13.05L48.97 13.05L48.97 6.08L48.97 6.08Q49.53 5.88 50.29 5.71L50.29 5.71L50.29 5.71Q51.06 5.53 52.00 5.53L52.00 5.53L52.00 5.53Q52.16 5.53 52.40 5.55L52.40 5.55L52.40 5.55Q52.64 5.57 52.88 5.61L52.88 5.61L52.88 5.61Q53.12 5.64 53.35 5.69L53.35 5.69L53.35 5.69Q53.59 5.74 53.76 5.81L53.76 5.81ZM61.77 9.35L61.77 9.35L61.77 9.35Q61.77 10.22 61.52 10.94L61.52 10.94L61.52 10.94Q61.26 11.66 60.79 12.17L60.79 12.17L60.79 12.17Q60.31 12.68 59.65 12.96L59.65 12.96L59.65 12.96Q58.98 13.24 58.16 13.24L58.16 13.24L58.16 13.24Q57.34 13.24 56.68 12.96L56.68 12.96L56.68 12.96Q56.01 12.68 55.54 12.17L55.54 12.17L55.54 12.17Q55.06 11.66 54.80 10.94L54.80 10.94L54.80 10.94Q54.53 10.22 54.53 9.35L54.53 9.35L54.53 9.35Q54.53 8.48 54.80 7.77L54.80 7.77L54.80 7.77Q55.08 7.06 55.56 6.55L55.56 6.55L55.56 6.55Q56.04 6.05 56.71 5.77L56.71 5.77L56.71 5.77Q57.37 5.49 58.16 5.49L58.16 5.49L58.16 5.49Q58.95 5.49 59.62 5.77L59.62 5.77L59.62 5.77Q60.28 6.05 60.76 6.55L60.76 6.55L60.76 6.55Q61.24 7.06 61.50 7.77L61.50 7.77L61.50 7.77Q61.77 8.48 61.77 9.35ZM59.64 9.35L59.64 9.35L59.64 9.35Q59.64 8.39 59.25 7.83L59.25 7.83L59.25 7.83Q58.87 7.28 58.16 7.28L58.16 7.28L58.16 7.28Q57.44 7.28 57.05 7.83L57.05 7.83L57.05 7.83Q56.66 8.39 56.66 9.35L56.66 9.35L56.66 9.35Q56.66 10.32 57.05 10.88L57.05 10.88L57.05 10.88Q57.44 11.45 58.16 11.45L58.16 11.45L58.16 11.45Q58.87 11.45 59.25 10.88L59.25 10.88L59.25 10.88Q59.64 10.32 59.64 9.35ZM65.16 9.13L65.16 9.13L65.16 9.13Q65.16 10.88 66.57 10.88L66.57 10.88L66.57 10.88Q66.89 10.88 67.17 10.79L67.17 10.79L67.17 10.79Q67.45 10.71 67.65 10.60L67.65 10.60L67.65 7.27L67.65 7.27Q67.49 7.24 67.28 7.22L67.28 7.22L67.28 7.22Q67.07 7.20 66.79 7.20L66.79 7.20L66.79 7.20Q65.97 7.20 65.56 7.74L65.56 7.74L65.56 7.74Q65.16 8.29 65.16 9.13ZM69.73 5.94L69.73 12.12L69.73 12.12Q69.73 13.93 68.82 14.80L68.82 14.80L68.82 14.80Q67.90 15.68 65.98 15.68L65.98 15.68L65.98 15.68Q65.31 15.68 64.64 15.56L64.64 15.56L64.64 15.56Q63.97 15.44 63.39 15.25L63.39 15.25L63.76 13.50L63.76 13.50Q64.25 13.69 64.78 13.80L64.78 13.80L64.78 13.80Q65.32 13.92 66.01 13.92L66.01 13.92L66.01 13.92Q66.91 13.92 67.28 13.52L67.28 13.52L67.28 13.52Q67.65 13.13 67.65 12.52L67.65 12.52L67.65 12.25L67.65 12.25Q67.31 12.40 66.95 12.48L66.95 12.48L66.95 12.48Q66.60 12.56 66.18 12.56L66.18 12.56L66.18 12.56Q64.65 12.56 63.84 11.65L63.84 11.65L63.84 11.65Q63.03 10.75 63.03 9.13L63.03 9.13L63.03 9.13Q63.03 8.32 63.28 7.65L63.28 7.65L63.28 7.65Q63.53 6.99 64.02 6.51L64.02 6.51L64.02 6.51Q64.50 6.03 65.20 5.77L65.20 5.77L65.20 5.77Q65.90 5.52 66.78 5.52L66.78 5.52L66.78 5.52Q67.16 5.52 67.56 5.55L67.56 5.55L67.56 5.55Q67.96 5.59 68.35 5.64L68.35 5.64L68.35 5.64Q68.74 5.70 69.10 5.77L69.10 5.77L69.10 5.77Q69.45 5.85 69.73 5.94L69.73 5.94ZM76.48 5.81L76.13 7.53L76.13 7.53Q75.85 7.46 75.47 7.38L75.47 7.38L75.47 7.38Q75.10 7.31 74.66 7.31L74.66 7.31L74.66 7.31Q74.47 7.31 74.19 7.34L74.19 7.34L74.19 7.34Q73.92 7.38 73.78 7.42L73.78 7.42L73.78 13.05L71.69 13.05L71.69 6.08L71.69 6.08Q72.25 5.88 73.02 5.71L73.02 5.71L73.02 5.71Q73.78 5.53 74.72 5.53L74.72 5.53L74.72 5.53Q74.89 5.53 75.12 5.55L75.12 5.55L75.12 5.55Q75.36 5.57 75.60 5.61L75.60 5.61L75.60 5.61Q75.84 5.64 76.08 5.69L76.08 5.69L76.08 5.69Q76.31 5.74 76.48 5.81L76.48 5.81ZM80.42 11.59L80.42 11.59L80.42 11.59Q80.72 11.59 81.00 11.58L81.00 11.58L81.00 11.58Q81.28 11.56 81.45 11.54L81.45 11.54L81.45 9.95L81.45 9.95Q81.33 9.93 81.07 9.90L81.07 9.90L81.07 9.90Q80.82 9.87 80.61 9.87L80.61 9.87L80.61 9.87Q80.32 9.87 80.06 9.90L80.06 9.90L80.06 9.90Q79.80 9.94 79.60 10.04L79.60 10.04L79.60 10.04Q79.41 10.14 79.30 10.30L79.30 10.30L79.30 10.30Q79.18 10.47 79.18 10.72L79.18 10.72L79.18 10.72Q79.18 11.21 79.51 11.40L79.51 11.40L79.51 11.40Q79.84 11.59 80.42 11.59ZM80.25 5.49L80.25 5.49L80.25 5.49Q81.17 5.49 81.79 5.70L81.79 5.70L81.79 5.70Q82.40 5.91 82.78 6.30L82.78 6.30L82.78 6.30Q83.15 6.69 83.30 7.25L83.30 7.25L83.30 7.25Q83.45 7.81 83.45 8.50L83.45 8.50L83.45 12.84L83.45 12.84Q83.01 12.94 82.21 13.07L82.21 13.07L82.21 13.07Q81.41 13.20 80.28 13.20L80.28 13.20L80.28 13.20Q79.56 13.20 78.98 13.08L78.98 13.08L78.98 13.08Q78.40 12.95 77.98 12.66L77.98 12.66L77.98 12.66Q77.56 12.38 77.34 11.91L77.34 11.91L77.34 11.91Q77.11 11.45 77.11 10.78L77.11 10.78L77.11 10.78Q77.11 10.14 77.37 9.69L77.37 9.69L77.37 9.69Q77.63 9.24 78.06 8.97L78.06 8.97L78.06 8.97Q78.50 8.71 79.06 8.59L79.06 8.59L79.06 8.59Q79.62 8.47 80.22 8.47L80.22 8.47L80.22 8.47Q80.63 8.47 80.94 8.50L80.94 8.50L80.94 8.50Q81.26 8.54 81.45 8.60L81.45 8.60L81.45 8.40L81.45 8.40Q81.45 7.87 81.13 7.55L81.13 7.55L81.13 7.55Q80.81 7.22 80.01 7.22L80.01 7.22L80.01 7.22Q79.48 7.22 78.96 7.30L78.96 7.30L78.96 7.30Q78.44 7.38 78.06 7.52L78.06 7.52L77.80 5.84L77.80 5.84Q77.98 5.78 78.25 5.72L78.25 5.72L78.25 5.72Q78.53 5.66 78.85 5.61L78.85 5.61L78.85 5.61Q79.17 5.56 79.53 5.52L79.53 5.52L79.53 5.52Q79.88 5.49 80.25 5.49ZM89.39 13.05L89.39 9.14L89.39 9.14Q89.39 8.13 89.13 7.71L89.13 7.71L89.13 7.71Q88.87 7.29 88.24 7.29L88.24 7.29L88.24 7.29Q88.05 7.29 87.84 7.31L87.84 7.31L87.84 7.31Q87.63 7.34 87.43 7.36L87.43 7.36L87.43 13.05L85.34 13.05L85.34 5.94L85.34 5.94Q85.61 5.87 85.97 5.79L85.97 5.79L85.97 5.79Q86.32 5.71 86.72 5.65L86.72 5.65L86.72 5.65Q87.12 5.59 87.54 5.55L87.54 5.55L87.54 5.55Q87.96 5.52 88.37 5.52L88.37 5.52L88.37 5.52Q89.17 5.52 89.66 5.72L89.66 5.72L89.66 5.72Q90.16 5.92 90.48 6.20L90.48 6.20L90.48 6.20Q90.93 5.88 91.51 5.70L91.51 5.70L91.51 5.70Q92.09 5.52 92.58 5.52L92.58 5.52L92.58 5.52Q93.46 5.52 94.03 5.76L94.03 5.76L94.03 5.76Q94.60 6.01 94.93 6.45L94.93 6.45L94.93 6.45Q95.27 6.90 95.40 7.52L95.40 7.52L95.40 7.52Q95.52 8.13 95.52 8.89L95.52 8.89L95.52 13.05L93.44 13.05L93.44 9.14L93.44 9.14Q93.44 8.13 93.18 7.71L93.18 7.71L93.18 7.71Q92.92 7.29 92.29 7.29L92.29 7.29L92.29 7.29Q92.12 7.29 91.82 7.38L91.82 7.38L91.82 7.38Q91.52 7.46 91.32 7.59L91.32 7.59L91.32 7.59Q91.42 7.91 91.45 8.27L91.45 8.27L91.45 8.27Q91.48 8.62 91.48 9.03L91.48 9.03L91.48 13.05L89.39 13.05ZM99.50 5.68L99.50 13.05L97.41 13.05L97.41 5.68L99.50 5.68ZM99.69 3.56L99.69 3.56L99.69 3.56Q99.69 4.13 99.32 4.46L99.32 4.46L99.32 4.46Q98.95 4.79 98.45 4.79L98.45 4.79L98.45 4.79Q97.94 4.79 97.57 4.46L97.57 4.46L97.57 4.46Q97.20 4.13 97.20 3.56L97.20 3.56L97.20 3.56Q97.20 2.98 97.57 2.65L97.57 2.65L97.57 2.65Q97.94 2.32 98.45 2.32L98.45 2.32L98.45 2.32Q98.95 2.32 99.32 2.65L99.32 2.65L99.32 2.65Q99.69 2.98 99.69 3.56ZM103.57 11.55L103.57 11.55L103.57 11.55Q104.15 11.55 104.38 11.44L104.38 11.44L104.38 11.44Q104.62 11.33 104.62 11.00L104.62 11.00L104.62 11.00Q104.62 10.75 104.31 10.56L104.31 10.56L104.31 10.56Q104.01 10.37 103.38 10.14L103.38 10.14L103.38 10.14Q102.89 9.95 102.49 9.76L102.49 9.76L102.49 9.76Q102.09 9.56 101.81 9.29L101.81 9.29L101.81 9.29Q101.53 9.02 101.37 8.64L101.37 8.64L101.37 8.64Q101.22 8.26 101.22 7.73L101.22 7.73L101.22 7.73Q101.22 6.69 101.99 6.09L101.99 6.09L101.99 6.09Q102.76 5.49 104.10 5.49L104.10 5.49L104.10 5.49Q104.78 5.49 105.39 5.61L105.39 5.61L105.39 5.61Q106.01 5.73 106.37 5.87L106.37 5.87L106.01 7.49L106.01 7.49Q105.64 7.36 105.22 7.27L105.22 7.27L105.22 7.27Q104.79 7.17 104.26 7.17L104.26 7.17L104.26 7.17Q103.28 7.17 103.28 7.71L103.28 7.71L103.28 7.71Q103.28 7.84 103.32 7.94L103.32 7.94L103.32 7.94Q103.36 8.04 103.49 8.13L103.49 8.13L103.49 8.13Q103.61 8.22 103.83 8.32L103.83 8.32L103.83 8.32Q104.05 8.43 104.38 8.55L104.38 8.55L104.38 8.55Q105.07 8.81 105.52 9.05L105.52 9.05L105.52 9.05Q105.97 9.30 106.23 9.58L106.23 9.58L106.23 9.58Q106.48 9.87 106.59 10.22L106.59 10.22L106.59 10.22Q106.69 10.57 106.69 11.03L106.69 11.03L106.69 11.03Q106.69 12.12 105.88 12.68L105.88 12.68L105.88 12.68Q105.06 13.24 103.56 13.24L103.56 13.24L103.56 13.24Q102.58 13.24 101.93 13.08L101.93 13.08L101.93 13.08Q101.28 12.91 101.02 12.80L101.02 12.80L101.37 11.10L101.37 11.10Q101.91 11.31 102.47 11.43L102.47 11.43L102.47 11.43Q103.03 11.55 103.57 11.55ZM108.18 10.04L108.18 3.85L110.26 3.51L110.26 5.68L112.77 5.68L112.77 7.42L110.26 7.42L110.26 10.01L110.26 10.01Q110.26 10.67 110.50 11.06L110.50 11.06L110.50 11.06Q110.73 11.45 111.43 11.45L111.43 11.45L111.43 11.45Q111.76 11.45 112.12 11.39L112.12 11.39L112.12 11.39Q112.48 11.33 112.77 11.21L112.77 11.21L113.06 12.84L113.06 12.84Q112.69 12.99 112.22 13.10L112.22 13.10L112.22 13.10Q111.76 13.22 111.09 13.22L111.09 13.22L111.09 13.22Q110.24 13.22 109.68 12.98L109.68 12.98L109.68 12.98Q109.12 12.75 108.78 12.34L108.78 12.34L108.78 12.34Q108.44 11.93 108.31 11.34L108.31 11.34L108.31 11.34Q108.18 10.75 108.18 10.04L108.18 10.04ZM117.28 11.59L117.28 11.59L117.28 11.59Q117.59 11.59 117.87 11.58L117.87 11.58L117.87 11.58Q118.15 11.56 118.31 11.54L118.31 11.54L118.31 9.95L118.31 9.95Q118.19 9.93 117.94 9.90L117.94 9.90L117.94 9.90Q117.68 9.87 117.47 9.87L117.47 9.87L117.47 9.87Q117.18 9.87 116.92 9.90L116.92 9.90L116.92 9.90Q116.66 9.94 116.47 10.04L116.47 10.04L116.47 10.04Q116.27 10.14 116.16 10.30L116.16 10.30L116.16 10.30Q116.05 10.47 116.05 10.72L116.05 10.72L116.05 10.72Q116.05 11.21 116.38 11.40L116.38 11.40L116.38 11.40Q116.70 11.59 117.28 11.59ZM117.11 5.49L117.11 5.49L117.11 5.49Q118.03 5.49 118.65 5.70L118.65 5.70L118.65 5.70Q119.27 5.91 119.64 6.30L119.64 6.30L119.64 6.30Q120.01 6.69 120.16 7.25L120.16 7.25L120.16 7.25Q120.32 7.81 120.32 8.50L120.32 8.50L120.32 12.84L120.32 12.84Q119.87 12.94 119.07 13.07L119.07 13.07L119.07 13.07Q118.27 13.20 117.14 13.20L117.14 13.20L117.14 13.20Q116.42 13.20 115.84 13.08L115.84 13.08L115.84 13.08Q115.26 12.95 114.84 12.66L114.84 12.66L114.84 12.66Q114.42 12.38 114.20 11.91L114.20 11.91L114.20 11.91Q113.97 11.45 113.97 10.78L113.97 10.78L113.97 10.78Q113.97 10.14 114.23 9.69L114.23 9.69L114.23 9.69Q114.49 9.24 114.93 8.97L114.93 8.97L114.93 8.97Q115.36 8.71 115.92 8.59L115.92 8.59L115.92 8.59Q116.48 8.47 117.08 8.47L117.08 8.47L117.08 8.47Q117.49 8.47 117.80 8.50L117.80 8.50L117.80 8.50Q118.12 8.54 118.31 8.60L118.31 8.60L118.31 8.40L118.31 8.40Q118.31 7.87 117.99 7.55L117.99 7.55L117.99 7.55Q117.67 7.22 116.87 7.22L116.87 7.22L116.87 7.22Q116.34 7.22 115.82 7.30L115.82 7.30L115.82 7.30Q115.30 7.38 114.93 7.52L114.93 7.52L114.66 5.84L114.66 5.84Q114.84 5.78 115.12 5.72L115.12 5.72L115.12 5.72Q115.39 5.66 115.71 5.61L115.71 5.61L115.71 5.61Q116.03 5.56 116.39 5.52L116.39 5.52L116.39 5.52Q116.75 5.49 117.11 5.49Z"></path></g><!----><g data-v-423bf9ae="" id="c5c85312-8709-4f01-80d8-f15ee47ee959" transform="matrix(7.5,0,0,7.5,0,-15)" stroke="none" fill="white"><path d="M7.969 2L6 13.844 5.969 14h2.063l1.969-11.844.031-.156H7.969zM5 3.813l-.531.344-4 2.5L0 6.938v2.126l.469.281 4 2.5.531.344V9.814L2.094 8.001 5 6.188V3.813zm6 0v2.375l2.906 1.813L11 9.814v2.375l.531-.344 4-2.5.469-.281V6.938l-.469-.281-4-2.5L11 3.813z"></path></g><!----></svg>